  <svg width="20" height="20" viewBox="0 0 20 20" fill="none" xmlns="http://www.w3.org/2000/svg">
    <path
    fill="#2463EB"
      d="M1.299 15.5948C1.731 16.9268 3.044 17.7768 4.445 17.7768H4.5C4.62853 18.4041 4.96969 18.9679 5.46582 19.3727C5.96196 19.7776 6.58265 19.9987 7.223 19.9988C7.68 19.9988 8.107 19.8838 8.485 19.6858C8.6429 19.5995 8.77428 19.4718 8.86502 19.3164C8.95576 19.161 9.00243 18.9838 9 18.8038V1.02582C9.00146 0.796865 8.92431 0.57434 8.78143 0.395426C8.63856 0.216512 8.43861 0.0920458 8.215 0.0428235C7.71332 -0.0549237 7.1934 0.0157347 6.736 0.243823C5.992 0.599823 5.556 1.39482 5.556 2.22182V2.27682C4.99921 2.16318 4.42097 2.22303 3.89925 2.44829C3.37754 2.67356 2.93746 3.0534 2.63837 3.53659C2.33928 4.01978 2.19557 4.58307 2.22661 5.15049C2.25766 5.7179 2.46197 6.26215 2.812 6.70982C2.02834 6.83323 1.31449 7.23235 0.798961 7.83532C0.283435 8.4383 0.000110635 9.20551 0 9.99882C0 11.1768 0.611 12.2098 1.533 12.8108C1.103 13.5818 0.962 14.5568 1.299 15.5948ZM17.188 6.70982C17.538 6.26215 17.7423 5.7179 17.7734 5.15049C17.8044 4.58307 17.6607 4.01978 17.3616 3.53659C17.0625 3.0534 16.6225 2.67356 16.1007 2.44829C15.579 2.22303 15.0008 2.16318 14.444 2.27682V2.22182C14.444 1.39582 14.007 0.599823 13.263 0.243823C12.8059 0.0159564 12.2864 -0.0546968 11.785 0.0428235C11.5614 0.0920458 11.3614 0.216512 11.2186 0.395426C11.0757 0.57434 10.9985 0.796865 11 1.02582V18.8028C11 19.1678 11.192 19.5148 11.516 19.6848C11.894 19.8838 12.32 19.9988 12.777 19.9988C13.4175 19.9987 14.0383 19.7774 14.5344 19.3723C15.0306 18.9673 15.3717 18.4033 15.5 17.7758H15.556C16.956 17.7758 18.27 16.9258 18.702 15.5938C19.039 14.5558 18.898 13.5808 18.468 12.8098C18.9377 12.5064 19.3239 12.0902 19.5915 11.5992C19.8591 11.1082 19.9995 10.558 20 9.99882C19.9999 9.20551 19.7166 8.4383 19.201 7.83532C18.6855 7.23235 17.9717 6.83323 17.188 6.70982Z"
 />
  </svg>